<?xml version="1.0" encoding="utf-8"?>
<!-- Generator: Adobe Illustrator 28.0.0, SVG Export Plug-In . SVG Version: 6.00 Build 0)  -->
<svg version="1.1" id="Layer_1" xmlns="http://www.w3.org/2000/svg" xmlns:xlink="http://www.w3.org/1999/xlink" x="0px" y="0px"
	 viewBox="0 0 69 30" style="enable-background:new 0 0 69 30;" xml:space="preserve">
<style type="text/css">
	.st0{fill:#666666;}
	.st1{fill:#333333;}
</style>
<g>
	<g>
		<path class="st0" d="M15,30C15,30,15,30,15,30C15,30,15,30,15,30C15,30,15,30,15,30C15,30,15,30,15,30z"/>
		<path class="st0" d="M30,15L30,15c-8.3,0-15-6.7-15-15c0,0,0,0,0,0s0,0,0,0c0,8.3-6.7,15-15,15v0c8.3,0,15,6.7,15,15
			C15,21.7,21.7,15,30,15z"/>
	</g>
</g>
<g>
	<g>
		<polygon class="st1" points="45,24 45,24 45,24 45,24 		"/>
		<path class="st1" d="M54,15L54,15c-5,0-9-4-9-9c0,0,0,0,0,0s0,0,0,0c0,5-4,9-9,9l0,0c5,0,9,4,9,9C45,19,49,15,54,15z"/>
	</g>
</g>
<g>
	<g>
		<path class="st1" d="M68.4,15L68.4,15c-2.3,0-4.2-1.9-4.2-4.2c0,0,0,0,0,0c0,0,0,0,0,0c0,2.3-1.9,4.2-4.2,4.2c0,0,0,0,0,0
			c2.3,0,4.2,1.9,4.2,4.2C64.2,16.9,66.1,15,68.4,15z"/>
		<polygon class="st1" points="64.2,19.2 64.2,19.2 64.2,19.2 64.2,19.2 		"/>
	</g>
</g>
</svg>
